<?xml version="1.0" encoding="UTF-8"?>
<svg xmlns="http://www.w3.org/2000/svg" xmlns:xlink="http://www.w3.org/1999/xlink" width="375pt" height="374.999991pt" viewBox="0 0 375 374.999991" version="1.2">
<defs>
<clipPath id="clip1">
  <path d="M 375 187.5 C 375 190.570312 374.925781 193.636719 374.773438 196.699219 C 374.625 199.765625 374.398438 202.824219 374.097656 205.878906 C 373.796875 208.933594 373.421875 211.976562 372.96875 215.011719 C 372.519531 218.046875 371.996094 221.070312 371.398438 224.078125 C 370.796875 227.089844 370.125 230.082031 369.378906 233.058594 C 368.636719 236.035156 367.816406 238.992188 366.925781 241.929688 C 366.035156 244.863281 365.074219 247.777344 364.039062 250.667969 C 363.003906 253.554688 361.902344 256.417969 360.726562 259.253906 C 359.554688 262.089844 358.308594 264.890625 356.996094 267.667969 C 355.6875 270.441406 354.308594 273.179688 352.859375 275.886719 C 351.414062 278.59375 349.902344 281.261719 348.324219 283.894531 C 346.746094 286.527344 345.105469 289.117188 343.402344 291.667969 C 341.695312 294.222656 339.929688 296.730469 338.101562 299.195312 C 336.273438 301.660156 334.386719 304.078125 332.4375 306.449219 C 330.492188 308.820312 328.488281 311.144531 326.429688 313.417969 C 324.367188 315.691406 322.253906 317.914062 320.082031 320.082031 C 317.914062 322.253906 315.691406 324.367188 313.417969 326.429688 C 311.144531 328.488281 308.820312 330.492188 306.449219 332.4375 C 304.078125 334.386719 301.660156 336.273438 299.195312 338.101562 C 296.730469 339.929688 294.222656 341.695312 291.667969 343.402344 C 289.117188 345.105469 286.527344 346.746094 283.894531 348.324219 C 281.261719 349.902344 278.59375 351.414062 275.886719 352.859375 C 273.179688 354.308594 270.441406 355.6875 267.667969 356.996094 C 264.890625 358.308594 262.089844 359.554688 259.253906 360.726562 C 256.417969 361.902344 253.554688 363.003906 250.667969 364.039062 C 247.777344 365.074219 244.863281 366.035156 241.929688 366.925781 C 238.992188 367.816406 236.035156 368.636719 233.058594 369.378906 C 230.082031 370.125 227.089844 370.796875 224.078125 371.398438 C 221.070312 371.996094 218.046875 372.519531 215.011719 372.96875 C 211.976562 373.421875 208.933594 373.796875 205.878906 374.097656 C 202.824219 374.398438 199.765625 374.625 196.699219 374.773438 C 193.636719 374.925781 190.570312 375 187.5 375 C 184.429688 375 181.363281 374.925781 178.300781 374.773438 C 175.234375 374.625 172.175781 374.398438 169.121094 374.097656 C 166.066406 373.796875 163.023438 373.421875 159.988281 372.96875 C 156.953125 372.519531 153.929688 371.996094 150.921875 371.398438 C 147.910156 370.796875 144.917969 370.125 141.941406 369.378906 C 138.964844 368.636719 136.007812 367.816406 133.070312 366.925781 C 130.136719 366.035156 127.222656 365.074219 124.332031 364.039062 C 121.445312 363.003906 118.582031 361.902344 115.746094 360.726562 C 112.910156 359.554688 110.105469 358.308594 107.332031 356.996094 C 104.558594 355.6875 101.820312 354.308594 99.113281 352.859375 C 96.40625 351.414062 93.738281 349.902344 91.105469 348.324219 C 88.472656 346.746094 85.882812 345.105469 83.332031 343.402344 C 80.777344 341.695312 78.269531 339.929688 75.804688 338.101562 C 73.339844 336.273438 70.921875 334.386719 68.550781 332.4375 C 66.179688 330.492188 63.855469 328.488281 61.582031 326.429688 C 59.308594 324.367188 57.085938 322.253906 54.917969 320.082031 C 52.746094 317.914062 50.632812 315.691406 48.570312 313.417969 C 46.511719 311.144531 44.507812 308.820312 42.558594 306.449219 C 40.613281 304.078125 38.726562 301.660156 36.898438 299.195312 C 35.070312 296.730469 33.304688 294.222656 31.597656 291.667969 C 29.894531 289.117188 28.253906 286.527344 26.675781 283.894531 C 25.097656 281.261719 23.585938 278.59375 22.140625 275.886719 C 20.691406 273.179688 19.3125 270.441406 18.003906 267.667969 C 16.691406 264.890625 15.445312 262.089844 14.273438 259.253906 C 13.097656 256.417969 11.996094 253.554688 10.960938 250.667969 C 9.925781 247.777344 8.964844 244.863281 8.074219 241.929688 C 7.183594 238.992188 6.363281 236.035156 5.621094 233.058594 C 4.875 230.082031 4.203125 227.089844 3.601562 224.078125 C 3.003906 221.070312 2.480469 218.046875 2.03125 215.011719 C 1.578125 211.976562 1.203125 208.933594 0.902344 205.878906 C 0.601562 202.824219 0.375 199.765625 0.226562 196.699219 C 0.0742188 193.636719 0 190.570312 0 187.5 C 0 184.429688 0.0742188 181.363281 0.226562 178.300781 C 0.375 175.234375 0.601562 172.175781 0.902344 169.121094 C 1.203125 166.066406 1.578125 163.023438 2.03125 159.988281 C 2.480469 156.953125 3.003906 153.929688 3.601562 150.921875 C 4.203125 147.910156 4.875 144.917969 5.621094 141.941406 C 6.363281 138.964844 7.183594 136.007812 8.074219 133.070312 C 8.964844 130.136719 9.925781 127.222656 10.960938 124.332031 C 11.996094 121.445312 13.097656 118.582031 14.273438 115.746094 C 15.445312 112.910156 16.691406 110.105469 18.003906 107.332031 C 19.3125 104.558594 20.691406 101.820312 22.140625 99.113281 C 23.585938 96.40625 25.097656 93.738281 26.675781 91.105469 C 28.253906 88.472656 29.894531 85.882812 31.597656 83.332031 C 33.304688 80.777344 35.070312 78.269531 36.898438 75.804688 C 38.726562 73.339844 40.613281 70.921875 42.558594 68.550781 C 44.507812 66.179688 46.511719 63.855469 48.570312 61.582031 C 50.632812 59.308594 52.746094 57.085938 54.917969 54.917969 C 57.085938 52.746094 59.308594 50.632812 61.582031 48.570312 C 63.855469 46.511719 66.179688 44.507812 68.550781 42.558594 C 70.921875 40.613281 73.339844 38.726562 75.804688 36.898438 C 78.269531 35.070312 80.777344 33.304688 83.332031 31.597656 C 85.882812 29.894531 88.472656 28.253906 91.105469 26.675781 C 93.738281 25.097656 96.40625 23.585938 99.113281 22.140625 C 101.820312 20.691406 104.558594 19.3125 107.332031 18.003906 C 110.105469 16.691406 112.910156 15.445312 115.746094 14.273438 C 118.582031 13.097656 121.445312 11.996094 124.332031 10.960938 C 127.222656 9.925781 130.136719 8.964844 133.070312 8.074219 C 136.007812 7.183594 138.964844 6.363281 141.941406 5.617188 C 144.917969 4.875 147.910156 4.203125 150.921875 3.601562 C 153.929688 3.003906 156.953125 2.480469 159.988281 2.03125 C 163.023438 1.578125 166.066406 1.203125 169.121094 0.902344 C 172.175781 0.601562 175.234375 0.375 178.300781 0.226562 C 181.363281 0.0742188 184.429688 0 187.5 0 C 190.570312 0 193.636719 0.0742188 196.699219 0.226562 C 199.765625 0.375 202.824219 0.601562 205.878906 0.902344 C 208.933594 1.203125 211.976562 1.578125 215.011719 2.03125 C 218.046875 2.480469 221.070312 3.003906 224.078125 3.601562 C 227.089844 4.203125 230.082031 4.875 233.058594 5.617188 C 236.035156 6.363281 238.992188 7.183594 241.929688 8.074219 C 244.863281 8.964844 247.777344 9.925781 250.667969 10.960938 C 253.554688 11.996094 256.417969 13.097656 259.253906 14.273438 C 262.089844 15.445312 264.890625 16.691406 267.667969 18.003906 C 270.441406 19.3125 273.179688 20.691406 275.886719 22.140625 C 278.59375 23.585938 281.261719 25.097656 283.894531 26.675781 C 286.527344 28.253906 289.117188 29.894531 291.667969 31.597656 C 294.222656 33.304688 296.730469 35.070312 299.195312 36.898438 C 301.660156 38.726562 304.078125 40.613281 306.449219 42.558594 C 308.820312 44.507812 311.144531 46.511719 313.417969 48.570312 C 315.691406 50.632812 317.914062 52.746094 320.082031 54.917969 C 322.253906 57.085938 324.367188 59.308594 326.429688 61.582031 C 328.488281 63.855469 330.492188 66.179688 332.4375 68.550781 C 334.386719 70.921875 336.273438 73.339844 338.101562 75.804688 C 339.929688 78.269531 341.695312 80.777344 343.402344 83.332031 C 345.105469 85.882812 346.746094 88.472656 348.324219 91.105469 C 349.902344 93.738281 351.414062 96.40625 352.859375 99.113281 C 354.308594 101.820312 355.6875 104.558594 356.996094 107.332031 C 358.308594 110.105469 359.554688 112.910156 360.726562 115.746094 C 361.902344 118.582031 363.003906 121.445312 364.039062 124.332031 C 365.074219 127.222656 366.035156 130.136719 366.925781 133.070312 C 367.816406 136.007812 368.636719 138.964844 369.378906 141.941406 C 370.125 144.917969 370.796875 147.910156 371.398438 150.921875 C 371.996094 153.929688 372.519531 156.953125 372.96875 159.988281 C 373.421875 163.023438 373.796875 166.066406 374.097656 169.121094 C 374.398438 172.175781 374.625 175.234375 374.773438 178.300781 C 374.925781 181.363281 375 184.429688 375 187.5 Z M 375 187.5 "/>
</clipPath>
<linearGradient id="linear0" gradientUnits="userSpaceOnUse" x1="1770.925994" y1="244.834" x2="1899.225993" y2="244.834" gradientTransform="matrix(0.000000000000000179,2.922837,-2.922837,0.000000000000000179,903.109723,-5176.127896)">
<stop offset="0" style="stop-color:rgb(36.898804%,8.999634%,92.199707%);stop-opacity:1;"/>
<stop offset="0.00390625" style="stop-color:rgb(37.052917%,8.950806%,91.943359%);stop-opacity:1;"/>
<stop offset="0.0078125" style="stop-color:rgb(37.208557%,8.903503%,91.687012%);stop-opacity:1;"/>
<stop offset="0.0117188" style="stop-color:rgb(37.362671%,8.854675%,91.430664%);stop-opacity:1;"/>
<stop offset="0.015625" style="stop-color:rgb(37.516785%,8.807373%,91.175842%);stop-opacity:1;"/>
<stop offset="0.0195313" style="stop-color:rgb(37.670898%,8.758545%,90.919495%);stop-opacity:1;"/>
<stop offset="0.0234375" style="stop-color:rgb(37.825012%,8.711243%,90.663147%);stop-opacity:1;"/>
<stop offset="0.0273437" style="stop-color:rgb(37.979126%,8.662415%,90.406799%);stop-opacity:1;"/>
<stop offset="0.03125" style="stop-color:rgb(38.134766%,8.615112%,90.151978%);stop-opacity:1;"/>
<stop offset="0.0351562" style="stop-color:rgb(38.288879%,8.566284%,89.89563%);stop-opacity:1;"/>
<stop offset="0.0390625" style="stop-color:rgb(38.442993%,8.518982%,89.640808%);stop-opacity:1;"/>
<stop offset="0.0429688" style="stop-color:rgb(38.597107%,8.470154%,89.38446%);stop-opacity:1;"/>
<stop offset="0.046875" style="stop-color:rgb(38.752747%,8.422852%,89.128113%);stop-opacity:1;"/>
<stop offset="0.0507812" style="stop-color:rgb(38.90686%,8.375549%,88.871765%);stop-opacity:1;"/>
<stop offset="0.0546875" style="stop-color:rgb(39.060974%,8.328247%,88.616943%);stop-opacity:1;"/>
<stop offset="0.0585938" style="stop-color:rgb(39.215088%,8.279419%,88.360596%);stop-opacity:1;"/>
<stop offset="0.0625" style="stop-color:rgb(39.369202%,8.232117%,88.104248%);stop-opacity:1;"/>
<stop offset="0.0664063" style="stop-color:rgb(39.523315%,8.183289%,87.8479%);stop-opacity:1;"/>
<stop offset="0.0703125" style="stop-color:rgb(39.678955%,8.135986%,87.593079%);stop-opacity:1;"/>
<stop offset="0.0742188" style="stop-color:rgb(39.833069%,8.087158%,87.336731%);stop-opacity:1;"/>
<stop offset="0.078125" style="stop-color:rgb(39.987183%,8.039856%,87.080383%);stop-opacity:1;"/>
<stop offset="0.0820312" style="stop-color:rgb(40.141296%,7.991028%,86.824036%);stop-opacity:1;"/>
<stop offset="0.0859375" style="stop-color:rgb(40.29541%,7.943726%,86.569214%);stop-opacity:1;"/>
<stop offset="0.0898438" style="stop-color:rgb(40.449524%,7.894897%,86.312866%);stop-opacity:1;"/>
<stop offset="0.09375" style="stop-color:rgb(40.605164%,7.847595%,86.058044%);stop-opacity:1;"/>
<stop offset="0.0976562" style="stop-color:rgb(40.759277%,7.798767%,85.801697%);stop-opacity:1;"/>
<stop offset="0.101562" style="stop-color:rgb(40.913391%,7.751465%,85.545349%);stop-opacity:1;"/>
<stop offset="0.105469" style="stop-color:rgb(41.067505%,7.702637%,85.289001%);stop-opacity:1;"/>
<stop offset="0.109375" style="stop-color:rgb(41.223145%,7.655334%,85.03418%);stop-opacity:1;"/>
<stop offset="0.113281" style="stop-color:rgb(41.377258%,7.606506%,84.777832%);stop-opacity:1;"/>
<stop offset="0.117188" style="stop-color:rgb(41.531372%,7.559204%,84.521484%);stop-opacity:1;"/>
<stop offset="0.121094" style="stop-color:rgb(41.685486%,7.510376%,84.265137%);stop-opacity:1;"/>
<stop offset="0.125" style="stop-color:rgb(41.8396%,7.463074%,84.010315%);stop-opacity:1;"/>
<stop offset="0.128906" style="stop-color:rgb(41.993713%,7.415771%,83.753967%);stop-opacity:1;"/>
<stop offset="0.132812" style="stop-color:rgb(42.149353%,7.368469%,83.499146%);stop-opacity:1;"/>
<stop offset="0.136719" style="stop-color:rgb(42.303467%,7.319641%,83.242798%);stop-opacity:1;"/>
<stop offset="0.140625" style="stop-color:rgb(42.457581%,7.272339%,82.98645%);stop-opacity:1;"/>
<stop offset="0.144531" style="stop-color:rgb(42.611694%,7.223511%,82.730103%);stop-opacity:1;"/>
<stop offset="0.148438" style="stop-color:rgb(42.767334%,7.176208%,82.475281%);stop-opacity:1;"/>
<stop offset="0.152344" style="stop-color:rgb(42.921448%,7.12738%,82.218933%);stop-opacity:1;"/>
<stop offset="0.15625" style="stop-color:rgb(43.075562%,7.080078%,81.962585%);stop-opacity:1;"/>
<stop offset="0.160156" style="stop-color:rgb(43.229675%,7.03125%,81.706238%);stop-opacity:1;"/>
<stop offset="0.164062" style="stop-color:rgb(43.383789%,6.983948%,81.451416%);stop-opacity:1;"/>
<stop offset="0.167969" style="stop-color:rgb(43.537903%,6.93512%,81.195068%);stop-opacity:1;"/>
<stop offset="0.171875" style="stop-color:rgb(43.693542%,6.887817%,80.938721%);stop-opacity:1;"/>
<stop offset="0.175781" style="stop-color:rgb(43.847656%,6.838989%,80.682373%);stop-opacity:1;"/>
<stop offset="0.179687" style="stop-color:rgb(44.00177%,6.791687%,80.427551%);stop-opacity:1;"/>
<stop offset="0.183594" style="stop-color:rgb(44.155884%,6.742859%,80.171204%);stop-opacity:1;"/>
<stop offset="0.1875" style="stop-color:rgb(44.309998%,6.695557%,79.916382%);stop-opacity:1;"/>
<stop offset="0.191406" style="stop-color:rgb(44.464111%,6.646729%,79.660034%);stop-opacity:1;"/>
<stop offset="0.195313" style="stop-color:rgb(44.619751%,6.599426%,79.403687%);stop-opacity:1;"/>
<stop offset="0.199219" style="stop-color:rgb(44.773865%,6.552124%,79.147339%);stop-opacity:1;"/>
<stop offset="0.203125" style="stop-color:rgb(44.927979%,6.504822%,78.892517%);stop-opacity:1;"/>
<stop offset="0.207031" style="stop-color:rgb(45.082092%,6.455994%,78.636169%);stop-opacity:1;"/>
<stop offset="0.210938" style="stop-color:rgb(45.237732%,6.408691%,78.379822%);stop-opacity:1;"/>
<stop offset="0.214844" style="stop-color:rgb(45.391846%,6.359863%,78.123474%);stop-opacity:1;"/>
<stop offset="0.21875" style="stop-color:rgb(45.545959%,6.312561%,77.868652%);stop-opacity:1;"/>
<stop offset="0.222656" style="stop-color:rgb(45.700073%,6.263733%,77.612305%);stop-opacity:1;"/>
<stop offset="0.226562" style="stop-color:rgb(45.854187%,6.216431%,77.357483%);stop-opacity:1;"/>
<stop offset="0.230469" style="stop-color:rgb(46.008301%,6.167603%,77.101135%);stop-opacity:1;"/>
<stop offset="0.234375" style="stop-color:rgb(46.16394%,6.1203%,76.844788%);stop-opacity:1;"/>
<stop offset="0.238281" style="stop-color:rgb(46.318054%,6.071472%,76.58844%);stop-opacity:1;"/>
<stop offset="0.242188" style="stop-color:rgb(46.472168%,6.02417%,76.333618%);stop-opacity:1;"/>
<stop offset="0.246094" style="stop-color:rgb(46.626282%,5.975342%,76.077271%);stop-opacity:1;"/>
<stop offset="0.25" style="stop-color:rgb(46.780396%,5.92804%,75.820923%);stop-opacity:1;"/>
<stop offset="0.253906" style="stop-color:rgb(46.934509%,5.879211%,75.564575%);stop-opacity:1;"/>
<stop offset="0.257812" style="stop-color:rgb(47.090149%,5.831909%,75.309753%);stop-opacity:1;"/>
<stop offset="0.261719" style="stop-color:rgb(47.244263%,5.783081%,75.053406%);stop-opacity:1;"/>
<stop offset="0.265625" style="stop-color:rgb(47.398376%,5.735779%,74.797058%);stop-opacity:1;"/>
<stop offset="0.269531" style="stop-color:rgb(47.55249%,5.688477%,74.54071%);stop-opacity:1;"/>
<stop offset="0.273438" style="stop-color:rgb(47.70813%,5.641174%,74.285889%);stop-opacity:1;"/>
<stop offset="0.277344" style="stop-color:rgb(47.862244%,5.592346%,74.029541%);stop-opacity:1;"/>
<stop offset="0.28125" style="stop-color:rgb(48.016357%,5.545044%,73.774719%);stop-opacity:1;"/>
<stop offset="0.285156" style="stop-color:rgb(48.170471%,5.496216%,73.518372%);stop-opacity:1;"/>
<stop offset="0.289062" style="stop-color:rgb(48.324585%,5.448914%,73.262024%);stop-opacity:1;"/>
<stop offset="0.292969" style="stop-color:rgb(48.478699%,5.400085%,73.005676%);stop-opacity:1;"/>
<stop offset="0.296875" style="stop-color:rgb(48.634338%,5.352783%,72.750854%);stop-opacity:1;"/>
<stop offset="0.300781" style="stop-color:rgb(48.788452%,5.303955%,72.494507%);stop-opacity:1;"/>
<stop offset="0.304687" style="stop-color:rgb(48.942566%,5.256653%,72.238159%);stop-opacity:1;"/>
<stop offset="0.308594" style="stop-color:rgb(49.09668%,5.207825%,71.981812%);stop-opacity:1;"/>
<stop offset="0.3125" style="stop-color:rgb(49.252319%,5.160522%,71.72699%);stop-opacity:1;"/>
<stop offset="0.316406" style="stop-color:rgb(49.406433%,5.111694%,71.470642%);stop-opacity:1;"/>
<stop offset="0.320312" style="stop-color:rgb(49.560547%,5.064392%,71.214294%);stop-opacity:1;"/>
<stop offset="0.324219" style="stop-color:rgb(49.714661%,5.015564%,70.957947%);stop-opacity:1;"/>
<stop offset="0.328125" style="stop-color:rgb(49.868774%,4.968262%,70.703125%);stop-opacity:1;"/>
<stop offset="0.332031" style="stop-color:rgb(50.022888%,4.919434%,70.446777%);stop-opacity:1;"/>
<stop offset="0.335937" style="stop-color:rgb(50.178528%,4.872131%,70.191956%);stop-opacity:1;"/>
<stop offset="0.339844" style="stop-color:rgb(50.332642%,4.824829%,69.935608%);stop-opacity:1;"/>
<stop offset="0.34375" style="stop-color:rgb(50.486755%,4.777527%,69.67926%);stop-opacity:1;"/>
<stop offset="0.347656" style="stop-color:rgb(50.640869%,4.728699%,69.422913%);stop-opacity:1;"/>
<stop offset="0.351562" style="stop-color:rgb(50.794983%,4.681396%,69.168091%);stop-opacity:1;"/>
<stop offset="0.355469" style="stop-color:rgb(50.949097%,4.632568%,68.911743%);stop-opacity:1;"/>
<stop offset="0.359375" style="stop-color:rgb(51.104736%,4.585266%,68.655396%);stop-opacity:1;"/>
<stop offset="0.363281" style="stop-color:rgb(51.25885%,4.536438%,68.399048%);stop-opacity:1;"/>
<stop offset="0.367188" style="stop-color:rgb(51.412964%,4.489136%,68.144226%);stop-opacity:1;"/>
<stop offset="0.371094" style="stop-color:rgb(51.567078%,4.440308%,67.887878%);stop-opacity:1;"/>
<stop offset="0.375" style="stop-color:rgb(51.722717%,4.393005%,67.633057%);stop-opacity:1;"/>
<stop offset="0.378906" style="stop-color:rgb(51.876831%,4.344177%,67.376709%);stop-opacity:1;"/>
<stop offset="0.382812" style="stop-color:rgb(52.030945%,4.296875%,67.120361%);stop-opacity:1;"/>
<stop offset="0.386719" style="stop-color:rgb(52.185059%,4.248047%,66.864014%);stop-opacity:1;"/>
<stop offset="0.390625" style="stop-color:rgb(52.339172%,4.200745%,66.609192%);stop-opacity:1;"/>
<stop offset="0.394531" style="stop-color:rgb(52.493286%,4.151917%,66.352844%);stop-opacity:1;"/>
<stop offset="0.398437" style="stop-color:rgb(52.648926%,4.104614%,66.096497%);stop-opacity:1;"/>
<stop offset="0.402344" style="stop-color:rgb(52.80304%,4.055786%,65.840149%);stop-opacity:1;"/>
<stop offset="0.40625" style="stop-color:rgb(52.957153%,4.008484%,65.585327%);stop-opacity:1;"/>
<stop offset="0.410156" style="stop-color:rgb(53.111267%,3.959656%,65.328979%);stop-opacity:1;"/>
<stop offset="0.414062" style="stop-color:rgb(53.265381%,3.912354%,65.072632%);stop-opacity:1;"/>
<stop offset="0.417969" style="stop-color:rgb(53.419495%,3.865051%,64.816284%);stop-opacity:1;"/>
<stop offset="0.421875" style="stop-color:rgb(53.575134%,3.817749%,64.561462%);stop-opacity:1;"/>
<stop offset="0.425781" style="stop-color:rgb(53.729248%,3.768921%,64.305115%);stop-opacity:1;"/>
<stop offset="0.429687" style="stop-color:rgb(53.883362%,3.721619%,64.050293%);stop-opacity:1;"/>
<stop offset="0.433594" style="stop-color:rgb(54.037476%,3.672791%,63.793945%);stop-opacity:1;"/>
<stop offset="0.4375" style="stop-color:rgb(54.193115%,3.625488%,63.537598%);stop-opacity:1;"/>
<stop offset="0.441406" style="stop-color:rgb(54.347229%,3.57666%,63.28125%);stop-opacity:1;"/>
<stop offset="0.445312" style="stop-color:rgb(54.501343%,3.529358%,63.026428%);stop-opacity:1;"/>
<stop offset="0.449219" style="stop-color:rgb(54.655457%,3.48053%,62.770081%);stop-opacity:1;"/>
<stop offset="0.453125" style="stop-color:rgb(54.80957%,3.433228%,62.513733%);stop-opacity:1;"/>
<stop offset="0.457031" style="stop-color:rgb(54.963684%,3.384399%,62.257385%);stop-opacity:1;"/>
<stop offset="0.460937" style="stop-color:rgb(55.119324%,3.337097%,62.002563%);stop-opacity:1;"/>
<stop offset="0.464844" style="stop-color:rgb(55.273438%,3.288269%,61.746216%);stop-opacity:1;"/>
<stop offset="0.46875" style="stop-color:rgb(55.427551%,3.240967%,61.489868%);stop-opacity:1;"/>
<stop offset="0.472656" style="stop-color:rgb(55.581665%,3.192139%,61.233521%);stop-opacity:1;"/>
<stop offset="0.476562" style="stop-color:rgb(55.737305%,3.144836%,60.978699%);stop-opacity:1;"/>
<stop offset="0.480469" style="stop-color:rgb(55.891418%,3.096008%,60.722351%);stop-opacity:1;"/>
<stop offset="0.484375" style="stop-color:rgb(56.045532%,3.048706%,60.467529%);stop-opacity:1;"/>
<stop offset="0.488281" style="stop-color:rgb(56.199646%,3.001404%,60.211182%);stop-opacity:1;"/>
<stop offset="0.492187" style="stop-color:rgb(56.35376%,2.954102%,59.954834%);stop-opacity:1;"/>
<stop offset="0.496094" style="stop-color:rgb(56.507874%,2.905273%,59.698486%);stop-opacity:1;"/>
<stop offset="0.5" style="stop-color:rgb(56.663513%,2.857971%,59.443665%);stop-opacity:1;"/>
<stop offset="0.503906" style="stop-color:rgb(56.817627%,2.809143%,59.187317%);stop-opacity:1;"/>
<stop offset="0.507812" style="stop-color:rgb(56.971741%,2.761841%,58.930969%);stop-opacity:1;"/>
<stop offset="0.511719" style="stop-color:rgb(57.125854%,2.713013%,58.674622%);stop-opacity:1;"/>
<stop offset="0.515625" style="stop-color:rgb(57.279968%,2.66571%,58.4198%);stop-opacity:1;"/>
<stop offset="0.519531" style="stop-color:rgb(57.434082%,2.616882%,58.163452%);stop-opacity:1;"/>
<stop offset="0.523437" style="stop-color:rgb(57.589722%,2.56958%,57.90863%);stop-opacity:1;"/>
<stop offset="0.527344" style="stop-color:rgb(57.743835%,2.520752%,57.652283%);stop-opacity:1;"/>
<stop offset="0.53125" style="stop-color:rgb(57.897949%,2.47345%,57.395935%);stop-opacity:1;"/>
<stop offset="0.535156" style="stop-color:rgb(58.052063%,2.424622%,57.139587%);stop-opacity:1;"/>
<stop offset="0.539062" style="stop-color:rgb(58.207703%,2.377319%,56.884766%);stop-opacity:1;"/>
<stop offset="0.542969" style="stop-color:rgb(58.361816%,2.328491%,56.628418%);stop-opacity:1;"/>
<stop offset="0.546875" style="stop-color:rgb(58.51593%,2.281189%,56.37207%);stop-opacity:1;"/>
<stop offset="0.550781" style="stop-color:rgb(58.670044%,2.232361%,56.115723%);stop-opacity:1;"/>
<stop offset="0.554688" style="stop-color:rgb(58.824158%,2.185059%,55.860901%);stop-opacity:1;"/>
<stop offset="0.558594" style="stop-color:rgb(58.978271%,2.137756%,55.604553%);stop-opacity:1;"/>
<stop offset="0.5625" style="stop-color:rgb(59.133911%,2.090454%,55.348206%);stop-opacity:1;"/>
<stop offset="0.566406" style="stop-color:rgb(59.288025%,2.041626%,55.091858%);stop-opacity:1;"/>
<stop offset="0.570312" style="stop-color:rgb(59.442139%,1.994324%,54.837036%);stop-opacity:1;"/>
<stop offset="0.574219" style="stop-color:rgb(59.596252%,1.945496%,54.580688%);stop-opacity:1;"/>
<stop offset="0.578125" style="stop-color:rgb(59.750366%,1.898193%,54.325867%);stop-opacity:1;"/>
<stop offset="0.582031" style="stop-color:rgb(59.90448%,1.849365%,54.069519%);stop-opacity:1;"/>
<stop offset="0.585938" style="stop-color:rgb(60.06012%,1.802063%,53.813171%);stop-opacity:1;"/>
<stop offset="0.589844" style="stop-color:rgb(60.214233%,1.753235%,53.556824%);stop-opacity:1;"/>
<stop offset="0.59375" style="stop-color:rgb(60.368347%,1.705933%,53.302002%);stop-opacity:1;"/>
<stop offset="0.597656" style="stop-color:rgb(60.522461%,1.657104%,53.045654%);stop-opacity:1;"/>
<stop offset="0.601562" style="stop-color:rgb(60.678101%,1.609802%,52.789307%);stop-opacity:1;"/>
<stop offset="0.605469" style="stop-color:rgb(60.832214%,1.560974%,52.532959%);stop-opacity:1;"/>
<stop offset="0.609375" style="stop-color:rgb(60.986328%,1.513672%,52.278137%);stop-opacity:1;"/>
<stop offset="0.613281" style="stop-color:rgb(61.140442%,1.464844%,52.02179%);stop-opacity:1;"/>
<stop offset="0.617187" style="stop-color:rgb(61.294556%,1.417542%,51.765442%);stop-opacity:1;"/>
<stop offset="0.621094" style="stop-color:rgb(61.448669%,1.368713%,51.509094%);stop-opacity:1;"/>
<stop offset="0.625" style="stop-color:rgb(61.604309%,1.321411%,51.254272%);stop-opacity:1;"/>
<stop offset="0.640625" style="stop-color:rgb(61.746216%,1.504517%,51.315308%);stop-opacity:1;"/>
<stop offset="0.644531" style="stop-color:rgb(61.810303%,2.026367%,51.91803%);stop-opacity:1;"/>
<stop offset="0.648438" style="stop-color:rgb(61.732483%,2.366638%,52.458191%);stop-opacity:1;"/>
<stop offset="0.652344" style="stop-color:rgb(61.654663%,2.705383%,52.998352%);stop-opacity:1;"/>
<stop offset="0.65625" style="stop-color:rgb(61.576843%,3.044128%,53.540039%);stop-opacity:1;"/>
<stop offset="0.660156" style="stop-color:rgb(61.499023%,3.382874%,54.0802%);stop-opacity:1;"/>
<stop offset="0.664062" style="stop-color:rgb(61.421204%,3.723145%,54.620361%);stop-opacity:1;"/>
<stop offset="0.667969" style="stop-color:rgb(61.343384%,4.06189%,55.160522%);stop-opacity:1;"/>
<stop offset="0.671875" style="stop-color:rgb(61.265564%,4.400635%,55.702209%);stop-opacity:1;"/>
<stop offset="0.675781" style="stop-color:rgb(61.187744%,4.73938%,56.242371%);stop-opacity:1;"/>
<stop offset="0.679688" style="stop-color:rgb(61.109924%,5.079651%,56.782532%);stop-opacity:1;"/>
<stop offset="0.683594" style="stop-color:rgb(61.032104%,5.418396%,57.322693%);stop-opacity:1;"/>
<stop offset="0.6875" style="stop-color:rgb(60.955811%,5.758667%,57.86438%);stop-opacity:1;"/>
<stop offset="0.691406" style="stop-color:rgb(60.877991%,6.097412%,58.404541%);stop-opacity:1;"/>
<stop offset="0.695312" style="stop-color:rgb(60.800171%,6.436157%,58.944702%);stop-opacity:1;"/>
<stop offset="0.699219" style="stop-color:rgb(60.722351%,6.774902%,59.484863%);stop-opacity:1;"/>
<stop offset="0.703125" style="stop-color:rgb(60.644531%,7.115173%,60.02655%);stop-opacity:1;"/>
<stop offset="0.707031" style="stop-color:rgb(60.566711%,7.453918%,60.566711%);stop-opacity:1;"/>
<stop offset="0.710937" style="stop-color:rgb(60.488892%,7.792664%,61.106873%);stop-opacity:1;"/>
<stop offset="0.714844" style="stop-color:rgb(60.411072%,8.131409%,61.647034%);stop-opacity:1;"/>
<stop offset="0.71875" style="stop-color:rgb(60.333252%,8.47168%,62.188721%);stop-opacity:1;"/>
<stop offset="0.722656" style="stop-color:rgb(60.255432%,8.810425%,62.728882%);stop-opacity:1;"/>
<stop offset="0.726562" style="stop-color:rgb(60.177612%,9.150696%,63.269043%);stop-opacity:1;"/>
<stop offset="0.730469" style="stop-color:rgb(60.099792%,9.489441%,63.809204%);stop-opacity:1;"/>
<stop offset="0.734375" style="stop-color:rgb(60.023499%,9.828186%,64.350891%);stop-opacity:1;"/>
<stop offset="0.738281" style="stop-color:rgb(59.945679%,10.166931%,64.891052%);stop-opacity:1;"/>
<stop offset="0.742188" style="stop-color:rgb(59.867859%,10.507202%,65.431213%);stop-opacity:1;"/>
<stop offset="0.746094" style="stop-color:rgb(59.790039%,10.845947%,65.971375%);stop-opacity:1;"/>
<stop offset="0.75" style="stop-color:rgb(59.712219%,11.184692%,66.513062%);stop-opacity:1;"/>
<stop offset="0.753906" style="stop-color:rgb(59.634399%,11.523438%,67.053223%);stop-opacity:1;"/>
<stop offset="0.757812" style="stop-color:rgb(59.55658%,11.863708%,67.593384%);stop-opacity:1;"/>
<stop offset="0.761719" style="stop-color:rgb(59.47876%,12.202454%,68.133545%);stop-opacity:1;"/>
<stop offset="0.765625" style="stop-color:rgb(59.40094%,12.542725%,68.675232%);stop-opacity:1;"/>
<stop offset="0.769531" style="stop-color:rgb(59.32312%,12.88147%,69.215393%);stop-opacity:1;"/>
<stop offset="0.773438" style="stop-color:rgb(59.2453%,13.220215%,69.755554%);stop-opacity:1;"/>
<stop offset="0.777344" style="stop-color:rgb(59.16748%,13.55896%,70.295715%);stop-opacity:1;"/>
<stop offset="0.78125" style="stop-color:rgb(59.091187%,13.899231%,70.835876%);stop-opacity:1;"/>
<stop offset="0.785156" style="stop-color:rgb(59.013367%,14.237976%,71.376038%);stop-opacity:1;"/>
<stop offset="0.789063" style="stop-color:rgb(58.935547%,14.576721%,71.917725%);stop-opacity:1;"/>
<stop offset="0.792969" style="stop-color:rgb(58.857727%,14.915466%,72.457886%);stop-opacity:1;"/>
<stop offset="0.796875" style="stop-color:rgb(58.779907%,15.255737%,72.998047%);stop-opacity:1;"/>
<stop offset="0.800781" style="stop-color:rgb(58.702087%,15.594482%,73.538208%);stop-opacity:1;"/>
<stop offset="0.804688" style="stop-color:rgb(58.624268%,15.934753%,74.079895%);stop-opacity:1;"/>
<stop offset="0.808594" style="stop-color:rgb(58.546448%,16.273499%,74.620056%);stop-opacity:1;"/>
<stop offset="0.8125" style="stop-color:rgb(58.468628%,16.612244%,75.160217%);stop-opacity:1;"/>
<stop offset="0.816406" style="stop-color:rgb(58.390808%,16.950989%,75.700378%);stop-opacity:1;"/>
<stop offset="0.820312" style="stop-color:rgb(58.312988%,17.29126%,76.242065%);stop-opacity:1;"/>
<stop offset="0.824219" style="stop-color:rgb(58.235168%,17.630005%,76.782227%);stop-opacity:1;"/>
<stop offset="0.828125" style="stop-color:rgb(58.158875%,17.96875%,77.322388%);stop-opacity:1;"/>
<stop offset="0.832031" style="stop-color:rgb(58.081055%,18.307495%,77.862549%);stop-opacity:1;"/>
<stop offset="0.835938" style="stop-color:rgb(58.003235%,18.647766%,78.404236%);stop-opacity:1;"/>
<stop offset="0.839844" style="stop-color:rgb(57.925415%,18.986511%,78.944397%);stop-opacity:1;"/>
<stop offset="0.84375" style="stop-color:rgb(57.847595%,19.325256%,79.484558%);stop-opacity:1;"/>
<stop offset="0.847656" style="stop-color:rgb(57.769775%,19.664001%,80.024719%);stop-opacity:1;"/>
<stop offset="0.851562" style="stop-color:rgb(57.691956%,20.004272%,80.566406%);stop-opacity:1;"/>
<stop offset="0.855469" style="stop-color:rgb(57.614136%,20.343018%,81.106567%);stop-opacity:1;"/>
<stop offset="0.859375" style="stop-color:rgb(57.536316%,20.683289%,81.646729%);stop-opacity:1;"/>
<stop offset="0.863281" style="stop-color:rgb(57.458496%,21.022034%,82.18689%);stop-opacity:1;"/>
<stop offset="0.867188" style="stop-color:rgb(57.382202%,21.360779%,82.728577%);stop-opacity:1;"/>
<stop offset="0.871094" style="stop-color:rgb(57.304382%,21.699524%,83.268738%);stop-opacity:1;"/>
<stop offset="0.875" style="stop-color:rgb(57.226562%,22.039795%,83.808899%);stop-opacity:1;"/>
<stop offset="0.878906" style="stop-color:rgb(57.148743%,22.37854%,84.34906%);stop-opacity:1;"/>
<stop offset="0.882813" style="stop-color:rgb(57.070923%,22.717285%,84.890747%);stop-opacity:1;"/>
<stop offset="0.886719" style="stop-color:rgb(56.993103%,23.05603%,85.430908%);stop-opacity:1;"/>
<stop offset="0.890625" style="stop-color:rgb(56.915283%,23.396301%,85.971069%);stop-opacity:1;"/>
<stop offset="0.894531" style="stop-color:rgb(56.837463%,23.735046%,86.51123%);stop-opacity:1;"/>
<stop offset="0.898438" style="stop-color:rgb(56.759644%,24.075317%,87.052917%);stop-opacity:1;"/>
<stop offset="0.902344" style="stop-color:rgb(56.681824%,24.414062%,87.593079%);stop-opacity:1;"/>
<stop offset="0.90625" style="stop-color:rgb(56.604004%,24.752808%,88.13324%);stop-opacity:1;"/>
<stop offset="0.910156" style="stop-color:rgb(56.526184%,25.091553%,88.673401%);stop-opacity:1;"/>
<stop offset="0.914062" style="stop-color:rgb(56.44989%,25.431824%,89.215088%);stop-opacity:1;"/>
<stop offset="0.917969" style="stop-color:rgb(56.37207%,25.770569%,89.755249%);stop-opacity:1;"/>
<stop offset="0.921875" style="stop-color:rgb(56.29425%,26.109314%,90.29541%);stop-opacity:1;"/>
<stop offset="0.925781" style="stop-color:rgb(56.216431%,26.448059%,90.835571%);stop-opacity:1;"/>
<stop offset="0.929688" style="stop-color:rgb(56.138611%,26.78833%,91.377258%);stop-opacity:1;"/>
<stop offset="0.933594" style="stop-color:rgb(56.060791%,27.127075%,91.917419%);stop-opacity:1;"/>
<stop offset="0.9375" style="stop-color:rgb(55.982971%,27.467346%,92.457581%);stop-opacity:1;"/>
<stop offset="0.941406" style="stop-color:rgb(55.905151%,27.806091%,92.997742%);stop-opacity:1;"/>
<stop offset="0.945312" style="stop-color:rgb(55.827332%,28.144836%,93.539429%);stop-opacity:1;"/>
<stop offset="0.949219" style="stop-color:rgb(55.749512%,28.483582%,94.07959%);stop-opacity:1;"/>
<stop offset="0.953125" style="stop-color:rgb(55.671692%,28.823853%,94.619751%);stop-opacity:1;"/>
<stop offset="0.957031" style="stop-color:rgb(55.593872%,29.162598%,95.159912%);stop-opacity:1;"/>
<stop offset="0.960938" style="stop-color:rgb(55.517578%,29.501343%,95.701599%);stop-opacity:1;"/>
<stop offset="0.964844" style="stop-color:rgb(55.439758%,29.840088%,96.24176%);stop-opacity:1;"/>
<stop offset="0.96875" style="stop-color:rgb(55.361938%,30.180359%,96.781921%);stop-opacity:1;"/>
<stop offset="0.972656" style="stop-color:rgb(55.284119%,30.519104%,97.322083%);stop-opacity:1;"/>
<stop offset="0.976563" style="stop-color:rgb(55.206299%,30.859375%,97.86377%);stop-opacity:1;"/>
<stop offset="0.980469" style="stop-color:rgb(55.128479%,31.19812%,98.403931%);stop-opacity:1;"/>
<stop offset="0.984375" style="stop-color:rgb(55.050659%,31.536865%,98.944092%);stop-opacity:1;"/>
<stop offset="0.988281" style="stop-color:rgb(54.974365%,31.867981%,99.472046%);stop-opacity:1;"/>
<stop offset="0.992188" style="stop-color:rgb(54.899597%,32.199097%,100%);stop-opacity:1;"/>
<stop offset="1" style="stop-color:rgb(54.899597%,32.199097%,100%);stop-opacity:1;"/>
</linearGradient>
<clipPath id="clip2">
  <path d="M 107 98 L 275 98 L 275 290.882812 L 107 290.882812 Z M 107 98 "/>
</clipPath>
</defs>
<g id="surface1">
<g clip-path="url(#clip1)" clip-rule="nonzero">
<rect x="0" y="0" width="375" height="374.999991" style="fill:url(#linear0);stroke:none;"/>
</g>
<g clip-path="url(#clip2)" clip-rule="nonzero">
<path style=" stroke:none;fill-rule:nonzero;fill:rgb(54.899597%,32.159424%,100%);fill-opacity:1;" d="M 272.054688 112.378906 C 268.050781 103.808594 259.644531 98.050781 251.144531 98.050781 C 246.9375 98.050781 240.773438 99.421875 235.3125 105.953125 C 210.285156 135.914062 187.261719 173.007812 165.09375 219.136719 C 158.804688 212.832031 151.289062 206.507812 142.332031 199.964844 C 139.078125 197.589844 135.125 196.335938 130.902344 196.335938 C 122.632812 196.335938 114.359375 201.042969 110.3125 208.054688 C 104.171875 218.6875 107.300781 231.144531 118.089844 239.09375 L 118.148438 239.140625 C 118.441406 239.378906 118.875 239.734375 119.542969 240.269531 C 122.972656 243.03125 126.597656 246.238281 130.625 250.085938 L 131.40625 250.828125 C 135.667969 254.886719 144.539062 263.335938 145.1875 268.496094 C 146.609375 279.828125 152.621094 287.5 162.101562 290.101562 C 163.949219 290.609375 165.929688 290.867188 167.984375 290.867188 C 175.582031 290.867188 184.859375 287.128906 188.460938 278.769531 C 208.3125 232.742188 233.375 179.984375 268.757812 137.628906 C 274.824219 130.378906 276.054688 120.9375 272.054688 112.378906 "/>
</g>
<path style=" stroke:none;fill-rule:nonzero;fill:rgb(74.119568%,73.728943%,73.728943%);fill-opacity:1;" d="M 266.648438 103.964844 C 262.640625 95.390625 254.234375 89.632812 245.734375 89.632812 C 241.527344 89.632812 235.363281 91.007812 229.90625 97.539062 C 204.871094 127.5 181.855469 164.589844 159.683594 210.71875 C 153.394531 204.417969 145.878906 198.089844 136.921875 191.546875 C 133.667969 189.175781 129.714844 187.917969 125.492188 187.917969 C 117.226562 187.917969 108.953125 192.625 104.902344 199.636719 C 98.761719 210.273438 101.890625 222.730469 112.679688 230.675781 L 112.738281 230.722656 C 113.03125 230.960938 113.464844 231.320312 114.132812 231.855469 C 117.5625 234.613281 121.1875 237.824219 125.214844 241.667969 L 125.996094 242.410156 C 130.257812 246.472656 139.128906 254.921875 139.78125 260.082031 C 141.203125 271.410156 147.207031 279.085938 156.691406 281.6875 C 158.539062 282.195312 160.523438 282.453125 162.574219 282.453125 C 170.171875 282.453125 179.449219 278.710938 183.050781 270.351562 C 202.902344 224.328125 227.964844 171.570312 263.347656 129.214844 C 269.414062 121.960938 270.644531 112.523438 266.648438 103.964844 "/>
<path style=" stroke:none;fill-rule:nonzero;fill:rgb(36.859131%,9.01947%,92.158508%);fill-opacity:1;" d="M 235.117188 100.792969 C 205.328125 136.449219 181.804688 178.207031 161.921875 220.691406 C 153.738281 211.226562 143.816406 202.988281 133.980469 195.804688 C 126.464844 190.316406 114.984375 194.644531 110.707031 202.039062 C 105.699219 210.71875 109.449219 219.839844 116.941406 225.308594 L 117.011719 225.359375 C 117.289062 225.585938 117.742188 225.960938 118.496094 226.566406 C 122.480469 229.769531 126.273438 233.191406 129.96875 236.71875 C 135.382812 241.894531 145.386719 251.09375 146.34375 258.730469 C 147.316406 266.460938 150.792969 273.066406 158.886719 275.289062 C 165.613281 277.140625 175.152344 274.289062 178.132812 267.371094 C 199.464844 217.910156 224.675781 166.246094 259.339844 124.757812 C 273.3125 108.042969 249.246094 83.886719 235.117188 100.792969 "/>
</g>
</svg>
