<?xml version="1.0" encoding="UTF-8"?>
<svg xmlns="http://www.w3.org/2000/svg" xmlns:xlink="http://www.w3.org/1999/xlink" width="375pt" height="374.999991pt" viewBox="0 0 375 374.999991" version="1.2">
<g id="surface1">
<path style=" stroke:none;fill-rule:nonzero;fill:rgb(100%,100%,100%);fill-opacity:1;" d="M 134.78125 12.964844 C 92.535156 27.558594 56.421875 59.25 36.4375 99.605469 C 29.394531 113.515625 24.398438 128.105469 21.21875 143.609375 C 13.496094 181.457031 18.949219 222.042969 36.210938 256.472656 C 47.566406 279.042969 63.691406 299.109375 83.449219 314.613281 C 102.074219 329.433594 123.652344 340.605469 146.589844 346.53125 C 175.664062 354.285156 206.324219 354.058594 235.621094 347.445312 C 261.96875 341.289062 286.953125 328.75 306.9375 310.28125 C 328.0625 290.898438 343.050781 265.363281 351 237.777344 C 359.632812 207.90625 360.765625 175.757812 355.316406 145.207031 C 300.804688 145.207031 246.296875 145.207031 191.789062 145.207031 C 191.789062 168.007812 191.789062 190.578125 191.789062 213.378906 C 223.359375 213.378906 254.929688 213.378906 286.496094 213.378906 C 282.863281 235.039062 269.917969 255.105469 251.75 267.414062 C 240.164062 275.167969 226.992188 280.183594 213.363281 282.691406 C 199.738281 284.972656 185.429688 285.429688 171.800781 282.691406 C 157.945312 279.957031 144.773438 274.027344 133.191406 265.820312 C 114.792969 252.824219 100.484375 233.671875 93.445312 212.238281 C 85.949219 190.351562 85.949219 166.183594 93.445312 144.292969 C 98.667969 129.019531 107.296875 114.652344 118.65625 103.027344 C 132.734375 88.660156 150.90625 78.171875 170.664062 74.070312 C 187.472656 70.421875 205.1875 71.105469 221.769531 76.121094 C 235.847656 80.453125 248.570312 88.207031 259.242188 98.238281 C 269.917969 87.523438 280.59375 76.804688 291.265625 66.089844 C 296.945312 60.390625 302.851562 54.917969 308.074219 48.988281 C 291.949219 33.941406 272.871094 21.855469 252.203125 14.105469 C 214.5 0.195312 172.484375 -0.03125 134.78125 12.964844 Z M 134.78125 12.964844 "/>
<path style=" stroke:none;fill-rule:nonzero;fill:rgb(91.758728%,26.269531%,20.779419%);fill-opacity:1;" d="M 134.78125 12.964844 C 172.253906 -0.03125 214.5 0.195312 251.976562 14.105469 C 272.644531 21.855469 291.722656 33.714844 307.847656 48.988281 C 302.394531 54.917969 296.492188 60.390625 291.039062 66.089844 C 280.367188 76.804688 269.691406 87.523438 259.015625 98.238281 C 248.570312 88.207031 235.621094 80.453125 221.539062 76.121094 C 205.1875 71.105469 187.246094 70.421875 170.4375 74.070312 C 150.90625 78.402344 132.507812 88.660156 118.425781 103.027344 C 107.070312 114.652344 98.441406 128.789062 93.21875 144.292969 C 74.136719 129.472656 55.289062 114.652344 36.210938 99.832031 C 56.421875 59.25 92.535156 27.558594 134.78125 12.964844 Z M 134.78125 12.964844 "/>
<path style=" stroke:none;fill-rule:nonzero;fill:rgb(98.429871%,73.728943%,1.959229%);fill-opacity:1;" d="M 21.21875 143.382812 C 24.398438 128.105469 29.394531 113.285156 36.4375 99.378906 C 55.515625 114.199219 74.367188 129.019531 93.445312 143.839844 C 85.949219 165.726562 85.949219 189.894531 93.445312 211.785156 C 74.367188 226.601562 55.515625 241.421875 36.4375 256.242188 C 18.949219 221.585938 13.722656 181.230469 21.21875 143.382812 Z M 21.21875 143.382812 "/>
<path style=" stroke:none;fill-rule:nonzero;fill:rgb(25.878906%,52.159119%,95.689392%);fill-opacity:1;" d="M 191.5625 145.207031 C 246.070312 145.207031 300.578125 145.207031 355.089844 145.207031 C 360.539062 175.988281 359.402344 207.90625 350.773438 237.777344 C 342.824219 265.363281 327.835938 290.671875 306.710938 310.28125 C 288.316406 295.917969 269.917969 281.550781 251.519531 267.1875 C 269.691406 254.875 282.636719 235.039062 286.269531 213.152344 C 254.699219 213.152344 223.128906 213.152344 191.5625 213.152344 C 191.5625 190.578125 191.5625 167.777344 191.5625 145.207031 Z M 191.5625 145.207031 "/>
<path style=" stroke:none;fill-rule:nonzero;fill:rgb(20.388794%,65.879822%,32.548523%);fill-opacity:1;" d="M 36.4375 256.242188 C 55.515625 241.421875 74.367188 226.601562 93.445312 211.785156 C 100.710938 233.214844 114.792969 252.367188 133.191406 265.363281 C 144.773438 273.570312 157.945312 279.273438 171.800781 282.234375 C 185.429688 284.972656 199.511719 284.746094 213.363281 282.234375 C 226.992188 279.726562 240.164062 274.710938 251.75 266.960938 C 270.144531 281.324219 288.542969 295.6875 306.9375 310.050781 C 286.953125 328.519531 262.195312 341.0625 235.621094 347.21875 C 206.550781 353.828125 175.664062 354.058594 146.589844 346.304688 C 123.652344 340.148438 102.074219 329.203125 83.449219 314.382812 C 63.917969 298.878906 47.566406 278.589844 36.4375 256.242188 Z M 36.4375 256.242188 "/>
</g>
</svg>
